<svg xmlns="http://www.w3.org/2000/svg" xmlns:xlink="http://www.w3.org/1999/xlink" width="92.34" height="29.6" viewBox="0 0 92.34 29.6"><defs><style>.a{fill:none;}.b{clip-path:url(#a);}.c{fill:#171b26;}</style><clipPath id="a"><rect class="a" width="92.34" height="29.6"/></clipPath></defs><g class="b" transform="translate(0)"><path class="c" d="M26.88-12.12V-28h-5.8v15.88c0,4.36-2.56,7.16-6.56,7.16-4.04,0-6.64-2.8-6.64-7.16V-28H2.08v15.88C2.08-4.44,6.92.4,14.48.4,22,.4,26.88-4.48,26.88-12.12Z" transform="translate(-2.08 29.2)"/><path class="c" d="M2.16,0H7.64V-13.48a5.516,5.516,0,0,1,5.04-3.12,7,7,0,0,1,2.8.56v-4.8a4.722,4.722,0,0,0-2.28-.48,6.629,6.629,0,0,0-5.56,2.76v-2.28H2.16Z" transform="translate(23.84 29.2)"/><path class="c" d="M24.08-10.4a10.569,10.569,0,0,0-10.6-10.72A9.648,9.648,0,0,0,7.64-19.2v-10L2.16-28V0h5.4V-1.4A10.66,10.66,0,0,0,13.32.28,10.6,10.6,0,0,0,24.08-10.4ZM12.6-16.44a5.969,5.969,0,0,1,6.08,6.04A5.945,5.945,0,0,1,12.6-4.36,7.019,7.019,0,0,1,7.64-6.28v-8.2A6.72,6.72,0,0,1,12.6-16.44Z" transform="translate(38.02 29.2)"/><path class="c" d="M20.84-2.6l-3.6-3.28a6.561,6.561,0,0,1-4.6,1.68A6,6,0,0,1,6.72-8.56H22.24V-10c0-6.4-4.4-11.2-10.32-11.2A10.638,10.638,0,0,0,1.2-10.4,10.849,10.849,0,0,0,12.4.4,12.493,12.493,0,0,0,20.84-2.6ZM11.8-16.68a5.376,5.376,0,0,1,5.08,4.2H6.68A5.234,5.234,0,0,1,11.8-16.68Z" transform="translate(57.02 29.2)"/><path class="c" d="M2.16,0H7.64V-13.48a5.516,5.516,0,0,1,5.04-3.12,7,7,0,0,1,2.8.56v-4.8a4.722,4.722,0,0,0-2.28-.48,6.629,6.629,0,0,0-5.56,2.76v-2.28H2.16Z" transform="translate(76.86 29.2)"/></g></svg>